<svg width="29" height="22" viewBox="0 0 29 22" fill="none" xmlns="http://www.w3.org/2000/svg">
<g clip-path="url(#clip0_1_102)">
<path fill-rule="evenodd" clip-rule="evenodd" d="M9.87687 2.75309V0.940186H8.64283V2.75309H6.7593C5.73379 2.75309 4.90242 3.581 4.90242 4.60231V5.25787H3.08955V6.49151H4.90242V8.95874H3.08955V10.1923H4.90242V13.8932H3.08955V15.1269H4.90242V17.5942H3.08955V18.8277H4.90242V19.3957C4.90242 20.417 5.73379 21.2449 6.7593 21.2449H21.6143C22.6399 21.2449 23.4712 20.417 23.4712 19.3957V17.5466C23.4712 17.2062 23.7483 16.9302 24.0901 16.9302H25.328V15.6974H24.0901C23.0646 15.6974 22.2333 16.5253 22.2333 17.5466V19.3957C22.2333 19.7362 21.9561 20.0122 21.6143 20.0122H14.8131V18.2235H17.9072C19.2689 18.2235 20.3728 17.1197 20.3728 15.758V8.36123C20.3728 7.02045 19.3026 5.92963 17.9698 5.89643V3.98588H21.6143C21.9561 3.98588 22.2333 4.26186 22.2333 4.60231V12.6154C22.2333 13.6367 23.0646 14.4646 24.0901 14.4646H25.328V13.2318H24.0901C23.7483 13.2318 23.4712 12.9559 23.4712 12.6154V7.68428H25.328V6.45149H23.4712V4.60231C23.4712 3.581 22.6399 2.75309 21.6143 2.75309H14.8131V0.940186H13.5791V2.75309H9.87687ZM16.7209 3.98588V5.89566H10.5104C9.14873 5.89566 8.04486 6.99953 8.04486 8.36123V15.758C8.04486 17.1197 9.14873 18.2235 10.5104 18.2235H11.0664V20.0122H6.7593C6.41748 20.0122 6.14034 19.7362 6.14034 19.3957V4.60231C6.14034 4.26186 6.41748 3.98588 6.7593 3.98588H16.7209ZM12.3153 20.0122H13.5642V18.2235H12.3153V20.0122ZM17.9072 7.12844H10.5104C9.82958 7.12844 9.27763 7.68038 9.27763 8.36123V15.758C9.27763 16.4389 9.82958 16.9908 10.5104 16.9908H17.9072C18.588 16.9908 19.1399 16.4389 19.1399 15.758V8.36123C19.1399 7.68038 18.588 7.12844 17.9072 7.12844ZM12.8464 9.10156H11.3011V14.8745H12.5162V11.3087H12.559L13.7994 14.8379H14.5758L15.8161 11.3284H15.859V14.8745H17.074V9.10156H15.5286L14.2179 12.6758H14.1573L12.8464 9.10156Z" fill="white"/>
</g>
<defs>
<clipPath id="clip0_1_102">
<rect width="22.781" height="20.8" fill="white" transform="translate(3.08955 0.940186)"/>
</clipPath>
</defs>
</svg>
