<svg width="38" height="39" viewBox="0 0 38 39" fill="none" xmlns="http://www.w3.org/2000/svg">
<rect x="0.269958" y="0.630127" width="37.44" height="37.44" rx="18.72" fill="#262130"/>
<g clip-path="url(#clip0_1_114)">
<path fill-rule="evenodd" clip-rule="evenodd" d="M7.84424 13.87C7.84424 13.1012 8.46744 12.478 9.2362 12.478H28.7237C29.4925 12.478 30.1157 13.1012 30.1157 13.87V24.0777C30.1157 24.8465 29.4925 25.4697 28.7237 25.4697H9.2362C8.46744 25.4697 7.84424 24.8465 7.84424 24.0777V13.87ZM19.444 16.1899H17.124V21.7578H18.052V19.9018H19.444C20.2128 19.9018 20.8359 19.2786 20.8359 18.5099V17.5819C20.8359 16.8131 20.2128 16.1899 19.444 16.1899ZM19.444 18.9739H18.052V17.1179H19.444C19.7002 17.1179 19.908 17.3256 19.908 17.5819V18.5099C19.908 18.7661 19.7002 18.9739 19.444 18.9739ZM12.9481 20.516L11.5266 16.2071L10.6454 16.4978L12.3806 21.7578H13.5156L15.2509 16.4978L14.3696 16.2071L12.9481 20.516ZM22.6919 16.1899H23.8826L26.4038 20.392V16.1899H27.3317V21.7578H26.1411L23.6199 17.5557V21.7578H22.6919V16.1899Z" fill="white"/>
</g>
<defs>
<clipPath id="clip0_1_114">
<rect width="22.2714" height="15.59" fill="white" transform="translate(7.84424 11.55)"/>
</clipPath>
</defs>
</svg>
