<svg width="39" height="38" viewBox="0 0 39 38" fill="none" xmlns="http://www.w3.org/2000/svg">
<rect x="0.800049" y="0.299988" width="37.44" height="37.44" rx="18.72" fill="#262130"/>
<g clip-path="url(#clip0_1_39)">
<path fill-rule="evenodd" clip-rule="evenodd" d="M14.9069 10.4229V8.60999H13.6728V10.4229H11.7893C10.7638 10.4229 9.93244 11.2508 9.93244 12.2721V12.9277H8.11957V14.1613H9.93244V16.6285H8.11957V17.8621H9.93244V21.563H8.11957V22.7967H9.93244V25.264H8.11957V26.4975H9.93244V27.0655C9.93244 28.0868 10.7638 28.9147 11.7893 28.9147H26.6443C27.6699 28.9147 28.5012 28.0868 28.5012 27.0655V25.2164C28.5012 24.876 28.7783 24.6 29.1201 24.6H30.358V23.3672H29.1201C28.0946 23.3672 27.2633 24.1951 27.2633 25.2164V27.0655C27.2633 27.406 26.9862 27.682 26.6443 27.682H19.8431V25.8933H22.9372C24.2989 25.8933 25.4028 24.7895 25.4028 23.4278V16.031C25.4028 14.6903 24.3326 13.5994 22.9998 13.5662V11.6557H26.6443C26.9862 11.6557 27.2633 11.9317 27.2633 12.2721V20.2852C27.2633 21.3065 28.0946 22.1344 29.1201 22.1344H30.358V20.9016H29.1201C28.7783 20.9016 28.5012 20.6257 28.5012 20.2852V15.3541H30.358V14.1213H28.5012V12.2721C28.5012 11.2508 27.6699 10.4229 26.6443 10.4229H19.8431V8.60999H18.6091V10.4229H14.9069ZM21.7509 11.6557V13.5655H15.5404C14.1787 13.5655 13.0749 14.6693 13.0749 16.031V23.4278C13.0749 24.7895 14.1787 25.8933 15.5404 25.8933H16.0964V27.682H11.7893C11.4475 27.682 11.1704 27.406 11.1704 27.0655V12.2721C11.1704 11.9317 11.4475 11.6557 11.7893 11.6557H21.7509ZM17.3453 27.682H18.5943V25.8933H17.3453V27.682ZM22.9372 14.7982H15.5404C14.8596 14.7982 14.3076 15.3502 14.3076 16.031V23.4278C14.3076 24.1087 14.8596 24.6606 15.5404 24.6606H22.9372C23.618 24.6606 24.1699 24.1087 24.1699 23.4278V16.031C24.1699 15.3502 23.618 14.7982 22.9372 14.7982ZM17.8764 16.7714H16.3311V22.5443H17.5462V18.9785H17.589L18.8294 22.5077H19.6058L20.8461 18.9982H20.889V22.5443H22.104V16.7714H20.5587L19.2479 20.3456H19.1873L17.8764 16.7714Z" fill="white"/>
</g>
<defs>
<clipPath id="clip0_1_39">
<rect width="22.781" height="20.8" fill="white" transform="translate(8.11957 8.60999)"/>
</clipPath>
</defs>
</svg>
