<svg width="39" height="38" viewBox="0 0 39 38" fill="none" xmlns="http://www.w3.org/2000/svg">
<rect x="0.980011" y="0.299988" width="37.44" height="37.44" rx="18.72" fill="#262130"/>
<path fill-rule="evenodd" clip-rule="evenodd" d="M15.129 27.3711C14.6826 27.3711 14.3207 27.0093 14.3207 26.5629V25.7546H11.0876C10.6412 25.7546 10.2793 25.3927 10.2793 24.9463C10.2793 24.4999 10.6412 24.138 11.0876 24.138H14.3207V23.3297C14.3207 22.8833 14.6826 22.5215 15.129 22.5215C15.5754 22.5215 15.9373 22.8833 15.9373 23.3297V24.138H27.2532C27.6996 24.138 28.0616 24.4999 28.0616 24.9463C28.0616 25.3927 27.6996 25.7546 27.2532 25.7546H15.9373V26.5629C15.9373 27.0093 15.5754 27.3711 15.129 27.3711ZM15.1289 14.4386C14.6825 14.4386 14.3206 14.0767 14.3206 13.6303V12.822H11.0875C10.6411 12.822 10.2792 12.4601 10.2792 12.0137C10.2792 11.5673 10.6411 11.2054 11.0875 11.2054H14.3206V10.3971C14.3206 9.95074 14.6825 9.58887 15.1289 9.58887C15.5753 9.58887 15.9372 9.95074 15.9372 10.3971V11.2054H27.2531C27.6995 11.2054 28.0614 11.5673 28.0614 12.0137C28.0614 12.4601 27.6995 12.822 27.2531 12.822H15.9372V13.6303C15.9372 14.0767 15.5753 14.4386 15.1289 14.4386ZM22.4034 20.0966C22.4034 20.5429 22.7653 20.9049 23.2117 20.9049C23.6581 20.9049 24.02 20.5429 24.02 20.0966V19.2883H27.2531C27.6995 19.2883 28.0614 18.9263 28.0614 18.4799C28.0614 18.0336 27.6995 17.6716 27.2531 17.6716H24.02V16.8635C24.02 16.417 23.6581 16.0551 23.2117 16.0551C22.7653 16.0551 22.4034 16.417 22.4034 16.8635V17.6716H11.0875C10.6411 17.6716 10.2792 18.0336 10.2792 18.4799C10.2792 18.9263 10.6411 19.2883 11.0875 19.2883H22.4034V20.0966Z" fill="white"/>
</svg>
