<svg width="25" height="25" viewBox="0 0 25 25" fill="none" xmlns="http://www.w3.org/2000/svg">
<g clip-path="url(#clip0_1_150)">
<path fill-rule="evenodd" clip-rule="evenodd" d="M18.9902 7.24881C19.6755 7.43131 20.2159 7.96553 20.4003 8.64326C20.7431 9.88116 20.7299 12.4615 20.7299 12.4615C20.7299 12.4615 20.7299 15.0287 20.4005 16.2667C20.2159 16.9443 19.6756 17.4787 18.9902 17.661C17.7381 17.9869 12.73 17.9869 12.73 17.9869C12.73 17.9869 7.73485 17.9869 6.46972 17.6481C5.7843 17.4656 5.24402 16.9313 5.05945 16.2537C4.72998 15.0287 4.72998 12.4485 4.72998 12.4485C4.72998 12.4485 4.72998 9.88116 5.05945 8.64326C5.24389 7.96565 5.79748 7.41827 6.4696 7.23589C7.72167 6.91 12.7298 6.91 12.7298 6.91C12.7298 6.91 17.7381 6.91 18.9902 7.24881ZM15.3 12.4484L11.1353 14.8202V10.0767L15.3 12.4484Z" fill="#FA1E4E"/>
</g>
<defs>
<clipPath id="clip0_1_150">
<rect width="24" height="24" fill="white" transform="translate(0.72998 0.910004)"/>
</clipPath>
</defs>
</svg>
