<svg width="19" height="25" viewBox="0 0 19 25" fill="none" xmlns="http://www.w3.org/2000/svg">
<g clip-path="url(#clip0_1_147)">
<path d="M16.3014 3.05286C17.4131 3.05286 18.3273 3.91865 18.4047 5.02011L18.41 5.17171V23.0528L13.6374 19.294L14.1825 21.1969H2.51854C1.4068 21.1969 0.492667 20.3311 0.41528 19.2296L0.409973 19.078V5.17171C0.409973 4.05012 1.27576 3.13557 2.36823 3.05816L2.51854 3.05286H16.3014ZM11.1682 7.59666L11.1098 7.59601L10.919 7.68138L10.775 7.84595L10.7385 7.90029L10.7182 7.95913L10.7169 7.96566L10.7158 7.9722L10.9631 7.97286C12.7117 8.50771 13.5243 9.31686 13.5243 9.31686C12.4545 8.73057 11.4054 8.44257 10.4283 8.32943C9.68769 8.24714 8.97797 8.26771 8.35054 8.35C8.28883 8.35 8.2374 8.36029 8.17569 8.37057C7.81569 8.40143 6.9414 8.53514 5.84083 9.01857C5.46026 9.19343 5.23397 9.31686 5.23397 9.31686C5.23397 9.31686 6.01506 8.5734 7.70327 8.04067L7.93912 7.96943L8.18926 7.96965C8.18941 7.93253 8.18129 7.89498 8.16403 7.85986L8.13117 7.80938L8.02831 7.68595L7.84174 7.59606L7.67999 7.59829C6.9608 7.62551 6.00855 7.88602 5.02372 8.56243L4.79597 8.726L4.72708 8.80523L4.60363 9.04626L4.56755 9.1211C4.54256 9.17352 4.5157 9.23093 4.48721 9.29318C4.31029 9.6798 4.13361 10.1186 3.9688 10.6016C3.54478 11.8441 3.27328 13.1521 3.22322 14.4794L3.21483 14.9226L3.2485 15.0479L3.30348 15.1359C3.44696 15.3509 3.69757 15.63 4.06951 15.9063C4.67024 16.3526 5.41748 16.6462 6.31898 16.7203L6.59406 16.7359L6.79508 16.6447L7.48733 15.7872L7.52033 15.7326L7.52683 15.7079L7.29112 15.6323C5.98483 15.2414 5.49112 14.4186 5.49112 14.4186C5.49112 14.4186 5.59397 14.4906 5.77912 14.5934C5.7894 14.6037 5.79969 14.614 5.82026 14.6243C5.85112 14.6449 5.88197 14.6551 5.91283 14.6757C6.16997 14.8197 6.42712 14.9329 6.66369 15.0254C7.0854 15.19 7.5894 15.3546 8.17569 15.4677C8.94712 15.6117 9.85226 15.6631 10.8397 15.478C11.3231 15.3957 11.8168 15.2517 12.3311 15.0357C12.6911 14.902 13.0923 14.7066 13.514 14.4289C13.514 14.4289 13.0498 15.1901 11.8482 15.5924L11.6523 15.6529L11.4115 15.721L11.429 15.7657L11.4561 15.8077L11.7771 16.2072L12.1395 16.6465L12.339 16.7359L12.6141 16.7203C13.5158 16.6462 14.2646 16.3528 14.8681 15.9067C15.2415 15.6305 15.4939 15.3517 15.6387 15.1369L15.6942 15.049L15.7286 14.9226L15.7202 14.4794C15.6701 13.1521 15.3986 11.8441 14.9745 10.6016C14.8509 10.2393 14.7207 9.90195 14.5887 9.59281L14.4561 9.29318L14.2912 8.94828L14.2629 8.89266L14.2378 8.84495L14.2163 8.80523L14.1474 8.726L13.8849 8.53962C13.3565 8.18484 12.808 7.93719 12.2587 7.78021C11.8275 7.65701 11.4544 7.60457 11.1682 7.59666ZM7.54826 11.6826C8.13454 11.6826 8.60769 12.1969 8.5974 12.8243C8.5974 13.4517 8.13454 13.966 7.54826 13.966C6.97226 13.966 6.49912 13.4517 6.49912 12.8243C6.49912 12.1969 6.96197 11.6826 7.54826 11.6826ZM11.3025 11.6826C11.8888 11.6826 12.3517 12.1969 12.3517 12.8243C12.3517 13.4517 11.8888 13.966 11.3025 13.966C10.7265 13.966 10.2534 13.4517 10.2534 12.8243C10.2534 12.1969 10.7163 11.6826 11.3025 11.6826Z" fill="#FA1E4E"/>
</g>
<defs>
<clipPath id="clip0_1_147">
<rect width="18" height="24" fill="white" transform="translate(0.409973 0.910004)"/>
</clipPath>
</defs>
</svg>
