<svg width="25" height="25" viewBox="0 0 25 25" fill="none" xmlns="http://www.w3.org/2000/svg">
<g clip-path="url(#clip0_1_139)">
<path d="M21.28 7.50819C20.6179 7.77913 19.9057 7.96239 19.1588 8.04423C19.9214 7.62257 20.5067 6.95538 20.7829 6.15908C20.0693 6.54973 19.2786 6.83313 18.4378 6.98588C17.7642 6.32378 16.8044 5.91 15.7416 5.91C13.7025 5.91 12.0487 7.43626 12.0487 9.31811C12.0487 9.58523 12.0814 9.84524 12.1448 10.0948C9.07562 9.95276 6.35433 8.59602 4.53279 6.53347C4.21497 7.03672 4.03266 7.62257 4.03266 8.24705C4.03266 9.42918 4.68509 10.4728 5.67545 11.0838C5.07039 11.0663 4.50057 10.913 4.00291 10.6571C4.00264 10.6715 4.00264 10.686 4.00264 10.7003C4.00264 12.3516 5.27611 13.7289 6.96518 14.0418C6.65562 14.1201 6.32872 14.1615 5.99245 14.1615C5.75394 14.1615 5.52288 14.1404 5.2976 14.1007C5.76744 15.4544 7.13098 16.4398 8.74733 16.4675C7.48322 17.3818 5.8911 17.9264 4.16044 17.9264C3.863 17.9264 3.56832 17.9104 3.27997 17.8787C4.9134 18.846 6.85502 19.41 8.94039 19.41C15.733 19.41 19.4477 14.2169 19.4477 9.71282C19.4477 9.56515 19.4441 9.41799 19.437 9.2721C20.1591 8.79173 20.7851 8.19164 21.28 7.50819Z" fill="#FA1E4E"/>
</g>
<defs>
<clipPath id="clip0_1_139">
<rect width="24" height="24" fill="white" transform="translate(0.279968 0.910004)"/>
</clipPath>
</defs>
</svg>
