<svg width="131" height="34" viewBox="0 0 131 34" fill="none" xmlns="http://www.w3.org/2000/svg">
<g clip-path="url(#clip0_1_122)">
<path d="M130.383 24.3282H128.765L123.407 17.9809L118.051 24.3282H116.431L122.597 17.0223L116.283 9.54178H117.901L123.406 16.0637L128.912 9.54178H130.53L124.216 17.0223L130.383 24.3282Z" fill="white"/>
<path d="M115.232 17.5515H109.415L110.455 16.3185H116.502V16.935C116.502 21.0178 113.172 24.3282 109.066 24.3282C104.959 24.3282 101.629 21.0178 101.629 16.935C101.629 12.8521 104.958 9.54178 109.066 9.54178C111.126 9.54178 112.991 10.3746 114.338 11.721L113.537 12.6702C112.958 12.0692 112.263 11.5915 111.495 11.2656C110.727 10.9397 109.9 10.7724 109.066 10.7738C105.643 10.7738 102.868 13.5321 102.868 16.935C102.868 20.3379 105.643 23.0962 109.065 23.0962C112.279 23.0962 114.921 20.6644 115.232 17.5515Z" fill="white"/>
<path d="M64.5056 13.583C63.8098 13.5839 63.1235 13.7452 62.5001 14.0544C61.8767 14.3637 61.3331 14.8125 60.9114 15.3661V13.8253H59.7418V27.204H60.9312V22.4058C61.3535 22.9586 61.8975 23.4065 62.5211 23.7149C63.1446 24.0232 63.8308 24.1837 64.5264 24.1837C67.2567 24.1837 69.4837 21.8059 69.4837 18.8813C69.4837 15.9577 67.2411 13.583 64.5056 13.583ZM64.5056 23.0307C62.4107 23.0307 60.7087 21.1696 60.7087 18.8782C60.7087 16.5857 62.4107 14.7257 64.5056 14.7257C66.6006 14.7257 68.3026 16.5867 68.3026 18.8782C68.3026 21.1696 66.6006 23.0348 64.5056 23.0348V23.0307ZM51.4617 9.67798C47.5494 9.67798 44.3638 12.9956 44.3638 17.0702C44.3638 21.1457 47.5494 24.4634 51.4617 24.4634C55.3741 24.4634 58.5597 21.1447 58.5597 17.0712C58.5597 12.9956 55.3741 9.67694 51.4617 9.67694V9.67798ZM51.4617 23.3592C48.1565 23.3592 45.4835 20.5417 45.4835 17.0743C45.4835 13.608 48.1649 10.7738 51.4617 10.7738C54.7586 10.7738 57.4399 13.5914 57.4399 17.0587C57.4399 20.525 54.7586 23.3551 51.4617 23.3551V23.3592ZM85.8494 13.6246C85.4501 13.6413 85.0613 13.7484 84.7088 13.9365C83.9853 14.3198 83.4194 14.945 83.1098 15.703L83.0859 15.756V13.9074H81.9162V23.9175H83.0901V23.852V18.6598C83.0766 17.9999 83.1987 17.3442 83.4487 16.7333C83.6618 16.1911 84.002 15.7079 84.4406 15.3245C84.6864 15.1018 84.9795 14.9377 85.2979 14.8446C85.6163 14.7515 85.9517 14.7318 86.2788 14.787L86.6219 14.8525C86.6884 14.5198 86.8496 14.0967 86.9151 13.764C86.5683 13.6668 86.2094 13.6199 85.8494 13.6246ZM75.4712 13.5955C72.74 13.5955 70.5119 15.9743 70.5119 18.8979C70.5119 21.8226 72.7358 24.2003 75.4712 24.2003C76.4228 24.1849 77.3499 23.896 78.1417 23.368C78.9335 22.8399 79.5566 22.0952 79.9367 21.2227L78.9126 20.6321C78.64 21.3293 78.1676 21.9305 77.5546 22.3601C76.9416 22.7898 76.2154 23.0289 75.4671 23.0473C73.4875 23.0473 71.8593 21.3838 71.6868 19.2681H80.4129V18.8938C80.4243 15.7768 78.3875 13.5955 75.4712 13.5955ZM75.4712 14.7454C77.5371 14.7454 78.9864 16.1344 79.2307 18.2533H71.719C72.0049 16.2738 73.5748 14.7496 75.4712 14.7496V14.7454ZM95.2035 13.8263V15.3651C94.7817 14.8117 94.238 14.363 93.6146 14.054C92.9913 13.7449 92.305 13.5837 91.6093 13.583C88.878 13.583 86.651 15.9619 86.651 18.8855C86.651 21.8101 88.8738 24.1879 91.6093 24.1879C92.3047 24.1877 92.9907 24.0272 93.614 23.7188C94.2374 23.4105 94.7813 22.9626 95.2035 22.41V23.9175H96.3731V13.8253H95.2035V13.8263ZM91.6093 23.038C89.5143 23.038 87.8123 21.178 87.8123 18.8865C87.8123 16.594 89.5143 14.7329 91.6093 14.7329C93.7042 14.7329 95.4062 16.594 95.4062 18.8865C95.4062 21.178 93.7042 23.0348 91.6093 23.0348V23.038Z" fill="white"/>
<path d="M27.4928 28.0711C25.7454 29.223 23.7 29.8401 21.6071 29.8469C18.2115 29.8469 14.9937 28.2042 12.776 25.3419L12.7521 25.3128C11.0522 23.3166 10.0364 20.3847 9.96572 17.2864V16.5586C10.0364 13.4417 11.0522 10.5097 12.775 8.48546C14.9937 5.6232 18.2125 3.9805 21.6071 3.9805C23.6813 3.9805 25.7139 4.59599 27.4938 5.75732C29.0633 7.16181 30.3195 8.88103 31.1805 10.8031C32.0416 12.7252 32.4883 14.807 32.4916 16.9132C32.4916 21.1624 30.669 25.2255 27.4928 28.0711ZM16.6623 31.9169C8.59437 31.5395 2.27307 24.951 2.27307 16.9142C2.27307 8.6331 9.05184 1.89384 17.3974 1.89488H17.439C18.7604 1.90008 20.0632 2.07683 21.3181 2.41265C17.5357 2.50206 13.98 4.35478 11.545 7.4988C9.61431 9.76532 8.46233 13.0539 8.38436 16.542V17.3051C8.46233 20.7673 9.61015 24.0506 11.5336 26.3171C13.9904 29.4809 17.543 31.3274 21.3191 31.4168C19.8013 31.8214 18.2314 31.9901 16.6623 31.9169ZM28.5075 4.54505C25.4419 1.82118 21.4827 0.317945 17.3818 0.320797C8.18058 0.320797 0.692749 7.76496 0.692749 16.9142C0.692749 25.7921 7.67529 33.071 16.5896 33.4868C20.9575 33.6988 25.2346 32.1905 28.5034 29.2855L28.5065 29.2834C30.2544 27.7309 31.654 25.8262 32.6136 23.6944C33.5731 21.5627 34.0708 19.252 34.074 16.9142C34.074 12.1992 32.0456 7.69114 28.5075 4.54505Z" fill="#FA1E4E"/>
<path d="M20.4416 6.46119C23.4193 8.36174 25.4685 12.3365 25.4685 16.935C25.4685 21.5335 23.4182 25.5083 20.4406 27.4088C24.2416 27.0959 27.2578 22.5264 27.2578 16.935C27.2578 11.3436 24.2417 6.77414 20.4416 6.46119Z" fill="#FA1E4E"/>
</g>
<defs>
<clipPath id="clip0_1_122">
<rect width="129.961" height="33.27" fill="white" transform="translate(0.609558 0.300003)"/>
</clipPath>
</defs>
</svg>
